<svg width="16" height="16" viewBox="0 0 16 16" fill="none" xmlns="http://www.w3.org/2000/svg">
<path d="M3.61849 2.06315C5.39172 3.39438 7.29903 6.09355 7.99929 7.54209C8.69961 6.09366 10.6068 3.39435 12.3801 2.06315C13.6596 1.10259 15.7326 0.359367 15.7326 2.72435C15.7326 3.19667 15.4618 6.69209 15.303 7.25955C14.7509 9.23246 12.7392 9.73566 10.9497 9.4311C14.0777 9.96347 14.8734 11.7269 13.1549 13.4903C9.89119 16.8394 8.46399 12.65 8.09812 11.5765C8.03108 11.3797 7.99971 11.2877 7.99925 11.366C7.99878 11.2877 7.96741 11.3797 7.90037 11.5765C7.53467 12.65 6.1075 16.8395 2.84358 13.4903C1.12507 11.7269 1.92078 9.96337 5.04883 9.4311C3.25928 9.73566 1.2475 9.23246 0.695496 7.25955C0.536664 6.69203 0.265869 3.19662 0.265869 2.72435C0.265869 0.359367 2.33899 1.10259 3.6184 2.06315H3.61849Z" fill="black"/>
</svg>
