<svg width="16" height="16" viewBox="0 0 16 16" fill="none" xmlns="http://www.w3.org/2000/svg">
<g clip-path="url(#clip0_2565_217)">
<mask id="mask0_2565_217" style="mask-type:luminance" maskUnits="userSpaceOnUse" x="0" y="1" width="16" height="14">
<path d="M15.9999 1.77783H-6.10352e-05V14.1722H15.9999V1.77783Z" fill="white"/>
</mask>
<g mask="url(#mask0_2565_217)">
<path d="M13.5446 2.88155C12.5248 2.41363 11.4312 2.06888 10.2878 1.87143C10.267 1.86762 10.2462 1.87715 10.2355 1.89619C10.0948 2.14634 9.93903 2.47267 9.82994 2.72916C8.60015 2.54505 7.37667 2.54505 6.17209 2.72916C6.06298 2.46697 5.90153 2.14634 5.76026 1.89619C5.74953 1.87778 5.72873 1.86826 5.70791 1.87143C4.56515 2.06825 3.47158 2.413 2.45117 2.88155C2.44233 2.88536 2.43476 2.89171 2.42974 2.89996C0.355472 5.99887 -0.212756 9.0216 0.065998 12.0069C0.0672593 12.0215 0.0754578 12.0354 0.0868099 12.0443C1.45535 13.0493 2.78102 13.6595 4.08206 14.0639C4.10289 14.0703 4.12495 14.0626 4.1382 14.0455C4.44596 13.6252 4.72031 13.1821 4.95553 12.716C4.96941 12.6887 4.95616 12.6564 4.92779 12.6456C4.49263 12.4805 4.07828 12.2792 3.6797 12.0507C3.64817 12.0323 3.64565 11.9872 3.67465 11.9656C3.75853 11.9027 3.84242 11.8373 3.92251 11.7713C3.937 11.7592 3.9572 11.7567 3.97423 11.7643C6.59273 12.9598 9.42757 12.9598 12.0152 11.7643C12.0322 11.7561 12.0524 11.7586 12.0675 11.7707C12.1476 11.8367 12.2315 11.9027 12.316 11.9656C12.345 11.9872 12.3431 12.0323 12.3116 12.0507C11.913 12.2837 11.4987 12.4805 11.0629 12.6449C11.0345 12.6557 11.0219 12.6887 11.0358 12.716C11.276 13.1814 11.5504 13.6246 11.8525 14.0449C11.8651 14.0626 11.8878 14.0703 11.9086 14.0639C13.216 13.6595 14.5416 13.0493 15.9102 12.0443C15.9222 12.0354 15.9297 12.0221 15.931 12.0075C16.2646 8.55621 15.3722 5.55826 13.5654 2.90059C13.5609 2.89171 13.5534 2.88536 13.5446 2.88155ZM5.34656 10.1892C4.55821 10.1892 3.90863 9.46539 3.90863 8.57653C3.90863 7.68768 4.54561 6.96391 5.34656 6.96391C6.15379 6.96391 6.79708 7.69403 6.78446 8.57653C6.78446 9.46539 6.14748 10.1892 5.34656 10.1892ZM10.663 10.1892C9.87472 10.1892 9.22514 9.46539 9.22514 8.57653C9.22514 7.68768 9.8621 6.96391 10.663 6.96391C11.4703 6.96391 12.1136 7.69403 12.101 8.57653C12.101 9.46539 11.4703 10.1892 10.663 10.1892Z" fill="black"/>
</g>
</g>
<defs>
<clipPath id="clip0_2565_217">
<rect width="16" height="12.3944" fill="white" transform="translate(-6.10352e-05 1.77783)"/>
</clipPath>
</defs>
</svg>
